<?xml version="1.0" encoding="UTF-8"?>
<svg version="1.1" xmlns="http://www.w3.org/2000/svg" width="811" height="805">
<path d="M0 0 C3.05216981 0.11882113 6.09609091 0.20092739 9.14990234 0.23730469 C56.45328046 1.1204421 106.34826805 17.34001877 147.88818359 39.15136719 C150.9121857 40.68129711 153.9442676 42.17782985 157.00927734 43.62402344 C165.42883753 47.66025547 173.03768942 52.38027434 180.71728516 57.67236328 C183.10931253 59.30201936 185.52326373 60.89499202 187.94287109 62.48339844 C196.23491548 67.93206623 204.47979264 73.42672218 212.45068359 79.33886719 C213.03197021 79.76474121 213.61325684 80.19061523 214.2121582 80.62939453 C225.76763706 89.34983857 235.88378765 99.98584703 246.08081055 110.21362305 C248.21142994 112.34964076 250.34739582 114.48020837 252.48388672 116.61035156 C253.86506709 117.99219225 255.24593748 119.37434286 256.62646484 120.75683594 C257.25265213 121.38099899 257.87883942 122.00516205 258.52400208 122.64823914 C271.4401225 135.6320574 281.95289714 150.3357124 292.11572266 165.5078125 C293.31869378 167.30199587 294.52654817 169.09291283 295.73876953 170.88085938 C327.80522253 218.24385475 349.03580483 274.42389379 356.88818359 331.15136719 C357.01206451 332.00868439 357.13594543 332.86600159 357.26358032 333.7492981 C359.72926682 351.15143648 360.39317797 368.38388394 360.33422852 385.92553711 C360.32508075 388.77219184 360.33189626 391.61802261 360.35473633 394.46459961 C360.56989305 421.49653982 358.5734297 448.30672988 352.45068359 474.71386719 C352.20848587 475.78255539 352.20848587 475.78255539 351.96139526 476.87283325 C345.95472695 503.19359847 337.6440602 529.81521217 325.88818359 554.15136719 C325.17758789 555.64434326 325.17758789 555.64434326 324.45263672 557.16748047 C313.0949407 580.91050768 300.39250847 604.66602022 283.54833984 625.02636719 C282.1110654 626.86607848 281.01655738 628.58653545 279.95068359 630.65136719 C277.19533503 635.83288551 272.84700203 639.88072401 268.88818359 644.15136719 C267.7785145 645.41739874 266.6739543 646.68793504 265.57568359 647.96386719 C257.64423447 657.02838048 249.53634281 665.69052039 240.56005859 673.72949219 C238.39951405 675.68788052 236.34698524 677.67806357 234.32568359 679.77636719 C230.69965147 683.47297901 226.68496103 686.64888747 222.64990234 689.88574219 C220.12156367 691.9599097 217.72262631 694.1158619 215.32568359 696.33886719 C211.70885894 699.59209571 207.99247886 701.98112796 203.77490234 704.37792969 C199.37445893 707.08131441 195.2816864 710.18338451 191.15332031 713.28149414 C187.81938835 715.77511309 184.50739137 718.08022931 180.88818359 720.15136719 C180.20393311 720.55395752 179.51968262 720.95654785 178.81469727 721.37133789 C156.06573187 734.72682769 132.61778922 746.58517632 107.64697266 755.19726562 C105.04793402 756.09611899 102.46478246 757.03180076 99.88037109 757.97167969 C42.88408862 778.00791551 -22.14969736 780.11349148 -81.11181641 769.15136719 C-82.1454834 768.96123047 -83.17915039 768.77109375 -84.24414062 768.57519531 C-124.4998688 760.95029415 -163.46112583 745.88592751 -198.90332031 725.41796875 C-200.93091572 724.25511611 -202.97330145 723.12927867 -205.02978516 722.01855469 C-212.63252017 717.8774203 -219.53960795 713.07912751 -226.43994141 707.88183594 C-229.33074817 705.70916162 -232.27850323 703.65081859 -235.27880859 701.63305664 C-241.74305805 697.2855132 -247.43263273 692.46574219 -253.11181641 687.15136719 C-254.37752034 686.04132442 -255.64816797 684.93688657 -256.92431641 683.83886719 C-268.62390649 673.62531374 -280.25076732 663.04853952 -290.32666016 651.20996094 C-292.40161559 648.81717863 -294.57149729 646.52516287 -296.73681641 644.21386719 C-302.74799241 637.61157706 -308.11135374 630.55796687 -313.43847656 623.3984375 C-314.53738745 621.92274801 -315.64108989 620.45061225 -316.75 618.98242188 C-335.87598304 593.63833728 -351.70122472 564.7479892 -363.31054688 535.18017578 C-364.0889477 533.20927058 -364.89407504 531.25174743 -365.70947266 529.29589844 C-367.24025288 525.60461418 -368.69109875 521.88660563 -370.11181641 518.15136719 C-370.46276367 517.22976807 -370.46276367 517.22976807 -370.82080078 516.28955078 C-381.16195162 488.61634781 -387.83455232 457.57394489 -390.11181641 428.15136719 C-390.19939209 427.03568359 -390.28696777 425.92 -390.37719727 424.77050781 C-391.22592936 412.43247201 -391.29796148 400.10747666 -391.29711914 387.74365234 C-391.29929558 384.18542321 -391.31749147 380.62751019 -391.33642578 377.06933594 C-391.38895801 356.34734217 -390.45850978 335.73909725 -386.61181641 315.33886719 C-386.48853973 314.67167664 -386.36526306 314.00448608 -386.23825073 313.31707764 C-381.9209036 290.1577894 -375.6464506 266.96039985 -366.86914062 245.08398438 C-366.12486555 243.18466733 -365.43976178 241.27408294 -364.77197266 239.34667969 C-354.94410927 211.22326006 -339.79073614 184.36032967 -322.54003906 160.16748047 C-321.23211428 158.32118255 -319.95218886 156.46005659 -318.68603516 154.58496094 C-311.17998468 143.50587044 -303.33053051 132.85876849 -293.59619141 123.62792969 C-291.54523326 121.58342109 -289.67636935 119.51142769 -287.79541016 117.31542969 C-284.24873177 113.22075846 -280.4181486 109.55418492 -276.42431641 105.90136719 C-271.43755944 101.29332936 -266.54718742 96.6299744 -261.79931641 91.77636719 C-254.40854191 84.27896517 -246.35928758 77.8679544 -237.67041016 71.94433594 C-234.95011767 70.03805464 -232.35432015 68.00867727 -229.73681641 65.96386719 C-179.91744974 28.50426706 -117.34371791 8.23827592 -56.11181641 1.15136719 C-55.09039551 1.02600586 -54.06897461 0.90064453 -53.01660156 0.77148438 C-35.31373796 -1.3556155 -17.7667178 -0.74472176 0 0 Z " fill="#020202" transform="translate(419.11181640625,11.8486328125)"/>
<path d="M0 0 C3.78231245 0.0106116 7.56413855 0.00011685 11.34643555 -0.01269531 C31.97523 -0.02581774 52.8592573 0.38078179 73.14135742 4.51074219 C74.25502686 4.72980225 75.36869629 4.9488623 76.51611328 5.17456055 C79.85517829 5.84559489 83.18622544 6.54681767 86.51635742 7.26074219 C87.49717285 7.46650879 88.47798828 7.67227539 89.48852539 7.88427734 C115.19792201 13.39562254 140.98688797 22.52108247 164.51635742 34.26074219 C165.49362793 34.74655762 166.47089844 35.23237305 167.4777832 35.73291016 C198.26086856 51.15055226 227.44958445 69.51144829 252.51635742 93.26074219 C254.00802167 94.62329641 255.50725778 95.97719461 257.0065918 97.33129883 C265.6828191 105.18676401 274.18266124 113.30203151 281.76245117 122.23339844 C283.84430115 124.639813 286.02748271 126.93950577 288.20385742 129.26074219 C294.51488183 136.19330688 300.03755727 143.66240622 305.51635742 151.26074219 C305.96591797 151.88013672 306.41547852 152.49953125 306.87866211 153.13769531 C327.18212786 181.28260336 344.13978671 212.43756352 355.51635742 245.26074219 C355.80978027 246.1029834 356.10320313 246.94522461 356.40551758 247.81298828 C364.94346675 272.63096275 371.63819726 298.16772289 375.51635742 324.13574219 C375.61645111 324.80371826 375.7165448 325.47169434 375.81967163 326.15991211 C378.21244156 342.42579899 378.70285753 358.43302022 378.70166016 374.84301758 C378.70383246 378.16012694 378.7220066 381.47689507 378.7409668 384.79394531 C378.78973488 403.04813588 377.9348874 421.26072964 374.70385742 439.26074219 C374.53281494 440.24308838 374.36177246 441.22543457 374.18554688 442.23754883 C363.19434714 504.00818997 339.46242412 563.6632684 300.51635742 613.26074219 C299.8228418 614.15535156 299.12932617 615.04996094 298.41479492 615.97167969 C290.04745899 626.61162538 281.25766099 636.85599038 271.51635742 646.26074219 C268.9931863 648.76771317 266.48863914 651.28923762 264.00854492 653.83886719 C257.84590723 660.13027641 251.44803336 665.80979809 244.51635742 671.26074219 C243.4466534 672.12055706 242.37766929 672.98126819 241.30932617 673.84277344 C232.32339606 681.04764979 223.02332537 687.76161562 213.51635742 694.26074219 C212.90260254 694.68129883 212.28884766 695.10185547 211.65649414 695.53515625 C202.72590546 701.603914 193.45827394 707.00923985 183.51635742 711.26074219 C181.87812012 712.02946655 181.87812012 712.02946655 180.20678711 712.8137207 C167.7881417 718.21007646 155.4951544 718.08096388 142.13208008 717.87817383 C138.39105877 717.8232378 134.65227281 717.81664796 130.91088867 717.81738281 C118.76800331 717.76410197 107.29410361 717.44898558 95.51635742 714.26074219 C94.6057959 714.04200439 93.69523437 713.8232666 92.75708008 713.59790039 C55.58587529 704.50884984 19.57013766 683.40959796 -4.48364258 653.26074219 C-4.87970703 652.77702148 -5.27577148 652.29330078 -5.68383789 651.79492188 C-25.20068729 627.95048516 -38.10995796 601.81503674 -45.79614258 572.01074219 C-46.03888916 571.07770264 -46.28163574 570.14466309 -46.53173828 569.18334961 C-50.00780214 555.01473135 -50.83557662 540.99200265 -50.79931641 526.47045898 C-50.79614969 523.82917167 -50.81975159 521.18900228 -50.8449707 518.54785156 C-50.88590347 507.45926803 -49.80618272 497.0960207 -47.48364258 486.26074219 C-47.18021269 484.80251642 -46.87690958 483.34426426 -46.57373047 481.88598633 C-39.36765785 447.78166456 -22.73683564 417.31213479 0.99682617 391.95605469 C3.61628507 389.15384285 6.16821788 386.30973074 8.66870117 383.40136719 C10.05861141 381.79106949 11.47147819 380.20054245 12.89526367 378.62011719 C29.87265756 359.50871097 42.75384638 337.23919727 51.70874023 313.39013672 C52.3538921 311.68910451 53.03472183 310.00161832 53.72729492 308.31933594 C69.96879526 267.84551709 67.23095747 215.44312137 51.51635742 175.26074219 C51.21777832 174.49117187 50.91919922 173.72160156 50.61157227 172.92871094 C43.09850031 153.86248394 33.62002518 136.0679953 20.51635742 120.26074219 C19.81381836 119.35710937 19.1112793 118.45347656 18.38745117 117.52246094 C-2.56310168 90.86162849 -30.85802309 71.60422098 -62.51245117 59.99072266 C-64.17411621 59.37536738 -65.82449489 58.72965951 -67.47192383 58.07714844 C-72.79655298 56.00062387 -78.18752626 54.48152314 -83.73364258 53.13574219 C-84.69765991 52.89754761 -84.69765991 52.89754761 -85.68115234 52.65454102 C-98.57625183 49.67053808 -111.33440329 48.93381624 -124.50878906 49 C-127.04687288 49.01074528 -129.58425155 49.00002313 -132.12231445 48.98730469 C-140.76782701 48.98089516 -149.04194399 49.35682017 -157.57958984 50.81982422 C-161.597007 51.42978264 -165.42895525 51.40055899 -169.48364258 51.26074219 C-166.10822859 42.55785324 -152.85232491 38.21494626 -144.92114258 34.44824219 C-143.84977051 33.9376123 -142.77839844 33.42698242 -141.67456055 32.90087891 C-110.21718378 18.16223589 -76.73072359 7.90117604 -42.38037109 2.703125 C-40.40263206 2.4010885 -38.42902235 2.07102124 -36.45996094 1.71679688 C-24.36136719 -0.24518434 -12.22568772 -0.04065587 0 0 Z " fill="#FEFEFE" transform="translate(391.483642578125,21.7392578125)"/>
<path d="M0 0 C0.93079376 -0.00095673 1.86158752 -0.00191345 2.82058716 -0.00289917 C4.76841297 -0.0035742 6.71624112 -0.00176765 8.6640625 0.00244141 C11.64588416 0.00783615 14.62755772 0.0024547 17.609375 -0.00390625 C19.510417 -0.00324606 21.4114589 -0.00196613 23.3125 0 C24.20105682 -0.00202423 25.08961365 -0.00404846 26.00509644 -0.00613403 C26.83340973 -0.00298187 27.66172302 0.00017029 28.51513672 0.00341797 C29.2399826 0.00421356 29.96482849 0.00500916 30.7116394 0.00582886 C32.9051329 0.14195507 34.69905139 0.34677632 36.7578125 1.1328125 C37.94297455 3.75133807 38.81661592 6.14696285 39.6328125 8.8828125 C39.88474365 9.68195068 40.1366748 10.48108887 40.39624023 11.30444336 C43.11161958 20.02144253 45.57954898 28.81511785 48.04638672 37.60498047 C50.68302269 46.97345295 53.34601428 56.28180556 56.79296875 65.390625 C57.93068777 68.62414223 58.84482592 71.89150893 59.7578125 75.1953125 C60.86713232 79.17682472 62.02731208 83.01222473 63.6328125 86.8203125 C65.65625059 91.62101857 67.16704679 96.53358992 68.6953125 101.5078125 C70.63634569 107.79513798 72.78629675 113.8381294 75.41796875 119.875 C77.15345646 124.0948156 78.64318128 128.38360994 80.1328125 132.6953125 C84.67358239 145.82392606 89.46226459 158.85306283 94.4453125 171.8203125 C94.85523438 172.89756592 94.85523438 172.89756592 95.2734375 173.99658203 C98.06010768 182.76174938 98.06010768 182.76174938 103.7578125 189.1328125 C104.00402344 187.88886719 104.25023437 186.64492188 104.50390625 185.36328125 C112.02300137 151.77886073 130.66249088 118.70838307 145.81512451 88.0435791 C146.81485491 86.01719128 147.81035151 83.98876157 148.80517578 81.95996094 C157.12806048 64.99894703 165.65621354 48.25177991 175.15332031 31.90966797 C178.10577463 26.79992735 180.98814097 21.65043054 183.8828125 16.5078125 C184.9470396 14.61929715 186.01208139 12.73124055 187.078125 10.84375 C187.52430176 10.05274902 187.97047852 9.26174805 188.43017578 8.44677734 C188.8682959 7.68316895 189.30641602 6.91956055 189.7578125 6.1328125 C190.20278076 5.21838379 190.64774902 4.30395508 191.10620117 3.36181641 C192.7578125 1.1328125 192.7578125 1.1328125 195.00463867 0.609375 C196.41966675 0.68285156 196.41966675 0.68285156 197.86328125 0.7578125 C199.60424072 0.82548828 199.60424072 0.82548828 201.38037109 0.89453125 C202.05855896 0.93239746 202.73674683 0.97026367 203.43548584 1.00927734 C206.09386135 1.15068847 208.75208834 1.24691558 211.41259766 1.33984375 C217.96652713 1.57398388 224.51823753 1.85213711 231.0703125 2.1328125 C233.37173442 2.22941419 235.67316665 2.32577044 237.97460938 2.421875 C243.56913257 2.65602283 249.16352056 2.8932064 254.7578125 3.1328125 C254.7578125 7.01478396 254.70752914 7.70214675 252.8359375 10.74609375 C252.39813965 11.47836182 251.9603418 12.21062988 251.50927734 12.96508789 C251.01379395 13.78356201 250.51831055 14.60203613 250.0078125 15.4453125 C240.61104702 31.44057377 232.40197031 48.07431061 224.03033447 64.62030029 C222.7916007 67.06609989 221.54947812 69.51014534 220.30615234 71.95361328 C161.39481867 184.59721927 161.39481867 184.59721927 159.7578125 307.1328125 C160.06847656 308.2671875 160.37914062 309.4015625 160.69921875 310.5703125 C164.75316353 324.24101419 172.52869101 336.93346728 179.7578125 349.1328125 C180.19561035 349.87490967 180.6334082 350.61700684 181.08447266 351.3815918 C184.86986662 357.75113631 188.83135079 363.9921226 192.8828125 370.1953125 C193.5322583 371.19030762 194.1817041 372.18530273 194.85083008 373.21044922 C204.41133033 387.96338727 204.41133033 387.96338727 215.08984375 401.90625 C216.7578125 404.1328125 216.7578125 404.1328125 216.7578125 407.1328125 C203.10335296 407.23769785 189.46668279 407.22325532 175.8203125 406.6953125 C174.78729004 406.65607666 173.75426758 406.61684082 172.68994141 406.57641602 C170.70312787 406.49278943 168.71683839 406.39536775 166.73144531 406.28295898 C164.65971201 406.17835176 162.58506184 406.12443571 160.51074219 406.10961914 C152.76984878 405.88239712 152.76984878 405.88239712 150.1027832 403.90698242 C148.77485942 402.15594174 147.83566453 400.42530187 146.8828125 398.4453125 C146.07360703 396.97604529 145.26090562 395.50869979 144.4453125 394.04296875 C144.01992187 393.25035645 143.59453125 392.45774414 143.15625 391.64111328 C140.61657409 387.08583564 137.72020663 382.75626269 134.8828125 378.3828125 C123.15312822 360.01547341 112.2550593 341.22977746 101.7578125 322.1328125 C101.10619141 320.94776123 101.10619141 320.94776123 100.44140625 319.73876953 C74.86902035 272.97210835 53.42400064 222.44306956 35.00390625 172.453125 C33.88059051 169.45996394 32.69082749 166.51425701 31.4453125 163.5703125 C13.75947253 121.57346076 -0.30245875 77.94984333 -13.13227844 34.25743103 C-14.36795387 30.05410321 -15.63016768 25.86075991 -16.92675781 21.67578125 C-17.2049234 20.77093994 -17.48308899 19.86609863 -17.76968384 18.93383789 C-18.3057734 17.19297125 -18.84729812 15.45376592 -19.39511108 13.71655273 C-21.70556971 6.18120524 -21.70556971 6.18120524 -21.2421875 2.1328125 C-17.39977988 -1.70959512 -5.22270743 -0.01206279 0 0 Z " fill="#FDFDFD" transform="translate(109.2421875,230.8671875)"/>
<path d="M0 0 C8.95670526 -0.05373692 17.91169062 -0.06295487 26.86842346 -0.01428223 C31.44363568 0.00638974 36.01425778 -0.02138891 40.58880615 -0.09977722 C42.65253812 -0.12836778 44.71490046 -0.13430579 46.77880859 -0.13061523 C49.3327522 -0.12694623 51.88708421 -0.16004316 54.43994141 -0.23461914 C62.73961823 -0.14165629 62.73961823 -0.14165629 66.1796875 2.97436523 C68.03420324 5.56329535 69.52982792 8.17687058 71 11 C71.94293094 12.54242608 72.89318361 14.08040589 73.8515625 15.61328125 C74.77946662 17.17766107 75.70383882 18.74414023 76.625 20.3125 C80.28951353 26.49364217 84.00119724 32.63681442 87.81738281 38.72558594 C95.26025965 50.60996251 102.23687272 62.71733827 109 75 C109.57975586 76.04978027 110.15951172 77.09956055 110.75683594 78.18115234 C125.70796639 105.35875043 139.07498458 133.24861896 151.54052734 161.64477539 C154.7590041 168.97510526 158.02577498 176.25365997 161.5625 183.4375 C169.59172165 199.87951115 175.90237915 217.20953484 182.67285156 234.19726562 C185.18279898 240.49074217 187.72709607 246.76331256 190.375 253 C194.40245582 262.64241757 197.73433186 272.5208871 201.10839844 282.40625 C202.29055215 285.84524263 203.51636957 289.26663524 204.75 292.6875 C206.56321596 297.72690622 208.27323339 302.79127084 209.91015625 307.890625 C210.77601058 310.36094775 211.71722123 312.7350786 212.72265625 315.1484375 C215.70719799 322.54673816 218.07835008 330.15731714 220.52636719 337.74560547 C221.36231598 340.33569998 222.20414401 342.92382411 223.046875 345.51171875 C227.92884691 360.55274042 232.4724131 375.68744347 236.875 390.875 C237.08943756 391.6018399 237.30387512 392.32867981 237.52481079 393.07754517 C238.73143921 397.35945673 239 400.42124724 239 405 C220.19 405 201.38 405 182 405 C180.10255959 400.57263904 178.60362645 397.02816114 177.45703125 392.5078125 C177.19204834 391.4854248 176.92706543 390.46303711 176.65405273 389.40966797 C176.37634033 388.32572754 176.09862793 387.24178711 175.8125 386.125 C171.27390521 368.86831111 166.00372361 351.88429306 159.5703125 335.23828125 C157.12118061 328.77059332 155.02856674 322.17296158 152.890625 315.59741211 C151.06671884 310.02977174 149.08211838 304.58119677 146.86621094 299.15771484 C145.85460486 296.6378235 144.9991146 294.09076977 144.1875 291.5 C142.23996593 285.54283697 139.99445615 279.7276171 137.69897461 273.8984375 C136.30025421 270.34463247 134.90967776 266.79142374 133.6015625 263.203125 C130.41965871 254.48507647 126.92538694 245.92400259 123.3125 237.375 C122.83651367 236.24771484 122.36052734 235.12042969 121.87011719 233.95898438 C119.71409163 228.89118155 117.49798853 223.91069981 115 219 C112.01195898 222.47087826 110.56966846 226.32368765 109.03125 230.5703125 C108.46016003 232.10898158 107.88903218 233.64763661 107.31787109 235.1862793 C107.02160828 235.99189301 106.72534546 236.79750671 106.42010498 237.62753296 C97.46631868 261.93104902 87.38694631 285.60079557 76.3828125 309.05078125 C75.11263869 311.75976776 73.85184366 314.47288852 72.59375 317.1875 C67.41165568 328.31757086 61.80903226 339.18575028 56 350 C55.46713379 350.99451172 54.93426758 351.98902344 54.38525391 353.01367188 C48.08929302 364.76037754 41.75108395 376.48409552 35.375 388.1875 C34.89047363 389.07735596 34.40594727 389.96721191 33.90673828 390.8840332 C33.45024902 391.72023193 32.99375977 392.55643066 32.5234375 393.41796875 C32.13075684 394.13750732 31.73807617 394.8570459 31.33349609 395.59838867 C29.58444381 398.74841197 27.78760386 401.87169325 26 405 C4.88 405 -16.24 405 -38 405 C-36.65861091 401.64652726 -35.50339028 398.96632547 -33.70703125 395.9375 C-33.24965576 395.15640869 -32.79228027 394.37531738 -32.32104492 393.57055664 C-31.8232251 392.72227295 -31.32540527 391.87398926 -30.8125 391 C-23.4069211 378.19680847 -16.6557532 365.0674869 -9.95892334 351.88531494 C-9.01236807 350.02431656 -8.06255489 348.16501659 -7.11181641 346.30615234 C2.54349011 327.41167433 11.58540268 308.27792953 20.17053223 288.87384033 C20.94957421 287.11391627 21.73199501 285.35548897 22.51464844 283.59716797 C31.0046906 264.42865662 38.11906283 244.79038513 45 225 C45.26226379 224.24585815 45.52452759 223.49171631 45.79473877 222.71472168 C54.21410508 199.21870632 54.21410508 199.21870632 60 175 C60.14373047 174.19675293 60.28746094 173.39350586 60.43554688 172.56591797 C64.24008696 150.55918452 65.53525934 126.80115303 60 105 C59.76796875 103.96617187 59.5359375 102.93234375 59.296875 101.8671875 C50.49495005 68.12647519 24.70862561 33.77993657 3.35083008 6.48999023 C0 2.18900564 0 2.18900564 0 0 Z " fill="#010101" transform="translate(466,167)"/>
<path d="M0 0 C0.66 0.33 1.32 0.66 2 1 C-12.19 15.19 -26.38 29.38 -41 44 C-41.66 43.67 -42.32 43.34 -43 43 C-42.25556641 42.27296875 -42.25556641 42.27296875 -41.49609375 41.53125 C-40.81675781 40.8609375 -40.13742188 40.190625 -39.4375 39.5 C-38.44556641 38.52546875 -38.44556641 38.52546875 -37.43359375 37.53125 C-35.44140881 35.45912185 -33.57168302 33.35278347 -31.703125 31.171875 C-28.14695208 27.0788224 -24.30981245 23.40652097 -20.3125 19.75 C-13.37141216 13.32754583 -6.62948437 6.74248694 0 0 Z " fill="#5F5F5F" transform="translate(163,98)"/>
</svg>
